<?xml version="1.0" standalone="no"?>
<!DOCTYPE svg PUBLIC "-//W3C//DTD SVG 20010904//EN"
 "http://www.w3.org/TR/2001/REC-SVG-20010904/DTD/svg10.dtd">
<svg version="1.0" xmlns="http://www.w3.org/2000/svg"
 width="1080.000000pt" height="1080.000000pt" viewBox="0 0 1080.000000 1080.000000"
 preserveAspectRatio="xMidYMid meet">
<metadata>
Created by potrace 1.14, written by Peter Selinger 2001-2017
</metadata>
<g transform="translate(0.000000,1080.000000) scale(0.100000,-0.100000)"
fill="#000000" stroke="none">
<path d="M0 5400 l0 -5400 5400 0 5400 0 0 5400 0 5400 -5400 0 -5400 0 0
-5400z m3283 748 c9 -32 -9 -57 -46 -62 -17 -3 -82 -8 -143 -11 -95 -5 -114
-3 -128 10 -35 35 -9 66 63 76 25 3 92 7 147 8 96 1 102 0 107 -21z m477 2
c25 -14 28 -65 3 -74 -17 -7 -208 0 -270 10 -35 5 -49 30 -38 65 7 21 10 22
146 16 76 -3 147 -11 159 -17z m-972 -42 c16 -16 15 -53 0 -66 -7 -5 -75 -22
-150 -38 -148 -30 -168 -27 -168 22 0 30 5 32 129 65 116 31 170 36 189 17z
m1228 3 c5 -4 38 -14 74 -21 164 -31 197 -50 170 -100 -13 -25 -38 -25 -118 0
-34 11 -90 24 -124 30 -34 5 -65 15 -70 22 -12 19 -10 52 4 66 14 14 50 16 64
3z m-1715 -121 c21 -12 26 -52 7 -68 -7 -5 -38 -18 -68 -28 -30 -9 -86 -28
-123 -42 -86 -31 -120 -25 -115 20 3 29 8 33 68 53 36 12 85 31 110 42 40 19
69 28 93 32 5 0 17 -4 28 -9z m2245 -39 c168 -70 174 -73 180 -98 5 -18 1 -31
-14 -46 l-21 -20 -68 31 c-37 17 -94 40 -126 52 -82 31 -98 50 -77 91 15 26
46 24 126 -10z m-2698 -143 c16 -16 15 -53 -3 -68 -26 -22 -234 -120 -253
-120 -28 0 -45 25 -38 54 5 19 32 38 127 85 125 63 147 69 167 49z m3122 -63
c72 -37 187 -112 193 -127 7 -20 -9 -54 -29 -62 -27 -10 -258 132 -262 162 -8
58 21 66 98 27z m-3560 -179 c22 -28 7 -60 -45 -93 -27 -17 -75 -50 -106 -72
-57 -42 -95 -51 -117 -29 -32 32 -12 56 123 147 92 62 124 72 145 47z m3935
-69 c12 -7 55 -38 98 -71 64 -49 77 -63 77 -87 0 -35 -30 -55 -59 -39 -11 5
-56 37 -100 71 -68 51 -81 65 -81 89 0 17 7 33 18 39 21 13 23 13 47 -2z
m4313 -69 c32 -32 3 -64 -145 -161 -81 -54 -118 -60 -135 -22 -14 31 3 52 76
95 28 17 71 46 96 65 46 35 87 44 108 23z m-3854 -251 c128 -77 148 -96 130
-124 -24 -39 -79 -21 -224 73 -68 43 -75 52 -70 84 1 14 27 40 39 40 3 0 60
-33 125 -73z m3436 -12 c7 -8 10 -25 6 -39 -5 -19 -32 -38 -127 -85 -67 -34
-129 -61 -138 -61 -38 0 -56 55 -26 80 30 25 221 117 246 118 15 1 32 -5 39
-13z m-3020 -200 c47 -20 102 -43 122 -52 21 -9 40 -24 43 -34 9 -27 -12 -59
-38 -59 -37 0 -256 92 -269 113 -13 20 -9 45 8 62 19 19 21 19 134 -30z m2564
-1 c9 -4 16 -18 16 -35 0 -32 -29 -48 -184 -101 -101 -34 -136 -30 -136 16 0
31 2 33 135 82 112 42 141 49 169 38z m-2141 -148 c29 -8 87 -22 130 -31 67
-15 78 -20 83 -41 13 -53 -49 -69 -152 -40 -27 8 -75 21 -106 30 -61 17 -78
39 -58 76 13 24 34 25 103 6z m1675 -8 c20 -20 14 -57 -10 -68 -22 -9 -180
-46 -246 -57 -38 -6 -62 10 -62 42 0 33 18 43 96 55 38 5 89 16 114 24 57 18
93 19 108 4z m-1011 -94 c35 -5 49 -30 38 -65 -7 -21 -11 -22 -135 -17 -133 6
-182 19 -188 51 -2 10 2 25 9 33 10 13 32 14 128 9 64 -3 130 -8 148 -11z
m523 1 c7 -8 10 -25 6 -39 -7 -29 -26 -33 -185 -42 -114 -7 -119 -6 -130 14
-13 25 -14 33 -1 52 7 11 38 16 127 21 65 3 130 6 144 7 15 1 32 -5 39 -13z"/>
</g>
</svg>
